<?xml version="1.0" encoding="UTF-8"?>
<svg width="544px" height="176px" viewBox="0 0 544 176" version="1.1" xmlns="http://www.w3.org/2000/svg" xmlns:xlink="http://www.w3.org/1999/xlink">
    <!-- Generator: Sketch 64 (93537) - https://sketch.com -->
    <title>prevent-credential-stuffing</title>
    <desc>Created with Sketch.</desc>
    <defs>
        <polygon id="path-1" points="1 0.4948 1.5048 0.4948 1.5048 1.4948 1 1.4948"></polygon>
        <polygon id="path-3" points="0.5048 0.4997 1.01 0.4997 1.01 1.4997 0.5048 1.4997"></polygon>
        <polygon id="path-5" points="0.3925 0.4948 1.3925 0.4948 1.3925 1 0.3925 1"></polygon>
        <polygon id="path-7" points="0.3876 0.99 1.3876 0.99 1.3876 1.4948 0.3876 1.4948"></polygon>
        <polygon id="path-9" points="1 0.4951 1.5052 0.4951 1.5052 1.4951 1 1.4951"></polygon>
        <polygon id="path-11" points="0.5047 0.4999 1.01 0.4999 1.01 1.4999 0.5047 1.4999"></polygon>
        <polygon id="path-13" points="0.3929 0.4951 1.3929 0.4951 1.3929 1 0.3929 1"></polygon>
        <polygon id="path-15" points="0.3875 0.99 1.3875 0.99 1.3875 1.495 0.3875 1.495"></polygon>
    </defs>
    <g id="prevent-credential-stuffing" stroke="none" stroke-width="1" fill="none" fill-rule="evenodd">
        <g id="Group-51" transform="translate(234.000000, 26.000000)">
            <g id="Group-3" transform="translate(0.000000, 36.000000)">
                <mask id="mask-2" fill="white">
                    <use xlink:href="#path-1"></use>
                </mask>
                <g id="Clip-2"></g>
                <path d="M1.0098,0.9948 C1.0098,0.9978 1.0078,0.9998 1.0048,0.9998 C1.0028,0.9998 0.9998,0.9978 0.9998,0.9948 C0.9998,0.9918 1.0028,0.9898 1.0048,0.9898 C1.0078,0.9898 1.0098,0.9918 1.0098,0.9948" id="Fill-1" fill="#494B54" mask="url(#mask-2)"></path>
            </g>
            <g id="Group-6" transform="translate(74.000000, 36.000000)">
                <mask id="mask-4" fill="white">
                    <use xlink:href="#path-3"></use>
                </mask>
                <g id="Clip-5"></g>
                <path d="M1.0098,0.9997 C1.0098,1.0027 1.0078,1.0047 1.0048,1.0047 C1.0018,1.0047 0.9998,1.0027 0.9998,0.9997 C0.9998,0.9967 1.0018,0.9947 1.0048,0.9947 C1.0078,0.9947 1.0098,0.9967 1.0098,0.9997" id="Fill-4" fill="#494B54" mask="url(#mask-4)"></path>
            </g>
            <g id="Group-9" transform="translate(38.000000, 74.000000)">
                <mask id="mask-6" fill="white">
                    <use xlink:href="#path-5"></use>
                </mask>
                <g id="Clip-8"></g>
                <path d="M0.8975,0.9948 C0.8975,0.9978 0.8955,0.9998 0.8925,0.9998 C0.8895,0.9998 0.8875,0.9978 0.8875,0.9948 C0.8875,0.9918 0.8895,0.9898 0.8925,0.9898 C0.8955,0.9898 0.8975,0.9918 0.8975,0.9948" id="Fill-7" fill="#494B54" mask="url(#mask-6)"></path>
            </g>
            <g id="Group-12" transform="translate(38.000000, 0.000000)">
                <mask id="mask-8" fill="white">
                    <use xlink:href="#path-7"></use>
                </mask>
                <g id="Clip-11"></g>
                <path d="M0.8926,0.9948 C0.8926,0.9978 0.8906,0.9998 0.8876,0.9998 C0.8846,0.9998 0.8826,0.9978 0.8826,0.9948 C0.8826,0.9918 0.8846,0.9898 0.8876,0.9898 C0.8906,0.9898 0.8926,0.9918 0.8926,0.9948" id="Fill-10" fill="#494B54" mask="url(#mask-8)"></path>
            </g>
            <path d="M38,72 C19.7741,72 5,56.8467074 5,38.1560674 C5,32.3052316 6.4476,26.8018138 8.9952,22" id="Stroke-13" stroke="#494B54" stroke-width="4"></path>
            <polygon id="Fill-15" fill="#494B54" points="12.7760508 28 14 15 2 20.4503106"></polygon>
            <path d="M39,5 C57.2248,5 72,20.1532926 72,38.8450606 C72,44.6947684 70.5524,50.1993142 68.0048,55" id="Stroke-17" stroke="#494B54" stroke-width="4"></path>
            <polygon id="Fill-19" fill="#494B54" points="63.2228456 49 62 62 74 56.5490558"></polygon>
            <line x1="19.5" y1="32" x2="19.5" y2="38" id="Stroke-21" stroke="#494B54" stroke-width="4"></line>
            <line x1="15" y1="46" x2="19" y2="40" id="Stroke-23" stroke="#494B54" stroke-width="4"></line>
            <line x1="12" y1="38" x2="19" y2="39" id="Stroke-25" stroke="#494B54" stroke-width="4"></line>
            <line x1="26" y1="38" x2="19" y2="39" id="Stroke-27" stroke="#494B54" stroke-width="4"></line>
            <line x1="24" y1="46" x2="20" y2="40" id="Stroke-29" stroke="#494B54" stroke-width="4"></line>
            <line x1="38.5" y1="32" x2="38.5" y2="38" id="Stroke-31" stroke="#494B54" stroke-width="4"></line>
            <line x1="34" y1="46" x2="38" y2="40" id="Stroke-33" stroke="#494B54" stroke-width="4"></line>
            <line x1="31" y1="38" x2="38" y2="39" id="Stroke-35" stroke="#494B54" stroke-width="4"></line>
            <line x1="45" y1="38" x2="38" y2="39" id="Stroke-37" stroke="#494B54" stroke-width="4"></line>
            <line x1="43" y1="46" x2="39" y2="40" id="Stroke-39" stroke="#494B54" stroke-width="4"></line>
            <line x1="57.5" y1="32" x2="57.5" y2="38" id="Stroke-41" stroke="#494B54" stroke-width="4"></line>
            <line x1="53" y1="46" x2="57" y2="40" id="Stroke-43" stroke="#494B54" stroke-width="4"></line>
            <line x1="50" y1="38" x2="57" y2="39" id="Stroke-45" stroke="#494B54" stroke-width="4"></line>
            <line x1="64" y1="38" x2="57" y2="39" id="Stroke-47" stroke="#494B54" stroke-width="4"></line>
            <line x1="62" y1="46" x2="58" y2="40" id="Stroke-49" stroke="#494B54" stroke-width="4"></line>
        </g>
        <polygon id="Line-6" fill="#76787F" fill-rule="nonzero" points="396.611111 59.15 319 59.15 319 57.85 396.611111 57.85 396.611111 53.2499998 407.611111 58.5 396.611111 63.7500002"></polygon>
        <polygon id="Line-6" fill="#76787F" fill-rule="nonzero" points="213.970486 58.9555556 141.357422 58.9555556 140.707422 58.9555556 140.707422 57.6555555 141.357422 57.6555555 213.970486 57.6555555 213.970486 53.0555554 224.970486 58.3055556 213.970486 63.5555557"></polygon>
        <g id="Group-7" transform="translate(62.000000, 32.000000)">
            <path d="M34.5,0 C20.2695897,0 7.68738669,10.463653 0,26.5 C7.68738669,42.5351935 20.2695897,53 34.5,53 C48.7304103,53 61.3126133,42.5351935 69,26.5 C61.3126133,10.463653 48.7304103,0 34.5,0 Z" id="Stroke-1" stroke="#494B54" stroke-width="4"></path>
            <path d="M55,26 C55,37.0457892 46.0457892,46 35,46 C23.9553613,46 15,37.0457892 15,26 C15,14.9542108 23.9553613,6 35,6 C46.0457892,6 55,14.9542108 55,26" id="Fill-3" fill="#494B54"></path>
            <path d="M43,26 C43,30.4186832 39.4175577,34 35,34 C30.5813168,34 27,30.4186832 27,26 C27,21.5813168 30.5813168,18 35,18 C39.4175577,18 43,21.5813168 43,26" id="Fill-5" fill="#FFFFFF"></path>
        </g>
        <path d="M51.595,142 L51.595,133.51 L55.42,139.12 L55.48,139.12 L59.305,133.495 L59.305,142 L60.49,142 L60.49,131.5 L59.29,131.5 L55.465,137.23 L51.64,131.5 L50.44,131.5 L50.44,142 L51.595,142 Z M66.805,142.18 C69.145,142.18 70.87,140.32 70.87,138.13 L70.87,138.1 C70.87,135.91 69.16,134.08 66.835,134.08 C64.495,134.08 62.785,135.94 62.785,138.13 L62.785,138.16 C62.785,140.35 64.48,142.18 66.805,142.18 Z M66.835,141.145 C65.2,141.145 63.97,139.795 63.97,138.13 L63.97,138.1 C63.97,136.465 65.125,135.1 66.805,135.1 C68.44,135.1 69.685,136.465 69.685,138.13 L69.685,138.16 C69.685,139.795 68.515,141.145 66.835,141.145 Z M74.11,142 L74.11,137.56 C74.11,136.105 75.1,135.13 76.435,135.13 C77.8,135.13 78.58,136.03 78.58,137.47 L78.58,142 L79.735,142 L79.735,137.185 C79.735,135.34 78.64,134.08 76.765,134.08 C75.43,134.08 74.62,134.755 74.11,135.595 L74.11,134.245 L72.955,134.245 L72.955,142 L74.11,142 Z M83.545,132.55 L83.545,131.275 L82.225,131.275 L82.225,132.55 L83.545,132.55 Z M83.455,142 L83.455,134.245 L82.3,134.245 L82.3,142 L83.455,142 Z M88.735,142.135 C89.29,142.135 89.725,142.015 90.13,141.805 L90.13,140.815 C89.725,141.01 89.395,141.085 89.005,141.085 C88.225,141.085 87.7,140.74 87.7,139.795 L87.7,135.265 L90.16,135.265 L90.16,134.245 L87.7,134.245 L87.7,131.905 L86.545,131.905 L86.545,134.245 L85.465,134.245 L85.465,135.265 L86.545,135.265 L86.545,139.945 C86.545,141.52 87.49,142.135 88.735,142.135 Z M95.74,142.18 C98.08,142.18 99.805,140.32 99.805,138.13 L99.805,138.1 C99.805,135.91 98.095,134.08 95.77,134.08 C93.43,134.08 91.72,135.94 91.72,138.13 L91.72,138.16 C91.72,140.35 93.415,142.18 95.74,142.18 Z M95.77,141.145 C94.135,141.145 92.905,139.795 92.905,138.13 L92.905,138.1 C92.905,136.465 94.06,135.1 95.74,135.1 C97.375,135.1 98.62,136.465 98.62,138.13 L98.62,138.16 C98.62,139.795 97.45,141.145 95.77,141.145 Z M103.045,142 L103.045,138.91 C103.045,136.57 104.425,135.355 106.12,135.355 L106.21,135.355 L106.21,134.11 C104.74,134.05 103.615,134.98 103.045,136.27 L103.045,134.245 L101.89,134.245 L101.89,142 L103.045,142 Z M113.665,144.445 C114.835,144.445 115.585,143.86 116.245,142.255 L119.5,134.245 L118.27,134.245 L115.78,140.71 L112.96,134.245 L111.685,134.245 L115.21,141.97 C114.745,143.065 114.31,143.425 113.62,143.425 C113.125,143.425 112.78,143.335 112.405,143.14 L112.015,144.055 C112.54,144.31 113.02,144.445 113.665,144.445 Z M124.87,142.18 C127.21,142.18 128.935,140.32 128.935,138.13 L128.935,138.1 C128.935,135.91 127.225,134.08 124.9,134.08 C122.56,134.08 120.85,135.94 120.85,138.13 L120.85,138.16 C120.85,140.35 122.545,142.18 124.87,142.18 Z M124.9,141.145 C123.265,141.145 122.035,139.795 122.035,138.13 L122.035,138.1 C122.035,136.465 123.19,135.1 124.87,135.1 C126.505,135.1 127.75,136.465 127.75,138.13 L127.75,138.16 C127.75,139.795 126.58,141.145 124.9,141.145 Z M133.87,142.165 C135.205,142.165 136,141.49 136.525,140.65 L136.525,142 L137.665,142 L137.665,134.245 L136.525,134.245 L136.525,138.685 C136.525,140.14 135.52,141.115 134.2,141.115 C132.835,141.115 132.055,140.215 132.055,138.775 L132.055,134.245 L130.9,134.245 L130.9,139.06 C130.9,140.905 131.995,142.165 133.87,142.165 Z M141.415,142 L141.415,138.91 C141.415,136.57 142.795,135.355 144.49,135.355 L144.58,135.355 L144.58,134.11 C143.11,134.05 141.985,134.98 141.415,136.27 L141.415,134.245 L140.26,134.245 L140.26,142 L141.415,142 Z M66.8425,160.165 C68.2075,160.165 69.1075,159.535 69.6475,158.83 L69.6475,160 L70.7575,160 L70.7575,155.26 C70.7575,154.27 70.4875,153.52 69.9625,152.995 C69.3925,152.425 68.5525,152.14 67.4575,152.14 C66.3325,152.14 65.4925,152.395 64.6375,152.785 L64.9825,153.73 C65.7025,153.4 66.4225,153.16 67.3375,153.16 C68.7925,153.16 69.6475,153.88 69.6475,155.275 L69.6475,155.545 C68.9575,155.35 68.2525,155.215 67.2625,155.215 C65.2975,155.215 63.9475,156.085 63.9475,157.72 L63.9475,157.75 C63.9475,159.34 65.4025,160.165 66.8425,160.165 Z M67.0675,159.25 C66.0175,159.25 65.1175,158.68 65.1175,157.705 L65.1175,157.675 C65.1175,156.7 65.9275,156.07 67.3825,156.07 C68.3275,156.07 69.0925,156.235 69.6625,156.4 L69.6625,157.15 C69.6625,158.38 68.4925,159.25 67.0675,159.25 Z M76.7125,160.18 C78.1675,160.18 79.0975,159.55 79.8775,158.68 L79.1425,157.99 C78.5275,158.65 77.7625,159.145 76.7725,159.145 C75.1525,159.145 73.9225,157.81 73.9225,156.13 L73.9225,156.1 C73.9225,154.435 75.1225,153.1 76.6975,153.1 C77.7475,153.1 78.4375,153.625 79.0525,154.27 L79.8175,153.46 C79.0975,152.695 78.1825,152.08 76.7125,152.08 C74.4475,152.08 72.7375,153.94 72.7375,156.13 L72.7375,156.16 C72.7375,158.335 74.4475,160.18 76.7125,160.18 Z M85.2775,160.18 C86.7325,160.18 87.6625,159.55 88.4425,158.68 L87.7075,157.99 C87.0925,158.65 86.3275,159.145 85.3375,159.145 C83.7175,159.145 82.4875,157.81 82.4875,156.13 L82.4875,156.1 C82.4875,154.435 83.6875,153.1 85.2625,153.1 C86.3125,153.1 87.0025,153.625 87.6175,154.27 L88.3825,153.46 C87.6625,152.695 86.7475,152.08 85.2775,152.08 C83.0125,152.08 81.3025,153.94 81.3025,156.13 L81.3025,156.16 C81.3025,158.335 83.0125,160.18 85.2775,160.18 Z M93.8875,160.18 C96.2275,160.18 97.9525,158.32 97.9525,156.13 L97.9525,156.1 C97.9525,153.91 96.2425,152.08 93.9175,152.08 C91.5775,152.08 89.8675,153.94 89.8675,156.13 L89.8675,156.16 C89.8675,158.35 91.5625,160.18 93.8875,160.18 Z M93.9175,159.145 C92.2825,159.145 91.0525,157.795 91.0525,156.13 L91.0525,156.1 C91.0525,154.465 92.2075,153.1 93.8875,153.1 C95.5225,153.1 96.7675,154.465 96.7675,156.13 L96.7675,156.16 C96.7675,157.795 95.5975,159.145 93.9175,159.145 Z M102.8875,160.165 C104.2225,160.165 105.0175,159.49 105.5425,158.65 L105.5425,160 L106.6825,160 L106.6825,152.245 L105.5425,152.245 L105.5425,156.685 C105.5425,158.14 104.5375,159.115 103.2175,159.115 C101.8525,159.115 101.0725,158.215 101.0725,156.775 L101.0725,152.245 L99.9175,152.245 L99.9175,157.06 C99.9175,158.905 101.0125,160.165 102.8875,160.165 Z M110.4325,160 L110.4325,155.56 C110.4325,154.105 111.4225,153.13 112.7575,153.13 C114.1225,153.13 114.9025,154.03 114.9025,155.47 L114.9025,160 L116.0575,160 L116.0575,155.185 C116.0575,153.34 114.9625,152.08 113.0875,152.08 C111.7525,152.08 110.9425,152.755 110.4325,153.595 L110.4325,152.245 L109.2775,152.245 L109.2775,160 L110.4325,160 Z M121.1125,160.135 C121.6675,160.135 122.1025,160.015 122.5075,159.805 L122.5075,158.815 C122.1025,159.01 121.7725,159.085 121.3825,159.085 C120.6025,159.085 120.0775,158.74 120.0775,157.795 L120.0775,153.265 L122.5375,153.265 L122.5375,152.245 L120.0775,152.245 L120.0775,149.905 L118.9225,149.905 L118.9225,152.245 L117.8425,152.245 L117.8425,153.265 L118.9225,153.265 L118.9225,157.945 C118.9225,159.52 119.8675,160.135 121.1125,160.135 Z M127.1425,160.15 C128.6875,160.15 129.9025,159.295 129.9025,157.825 L129.9025,157.795 C129.9025,156.4 128.6125,155.935 127.4125,155.575 C126.3775,155.26 125.4175,154.975 125.4175,154.24 L125.4175,154.21 C125.4175,153.565 126.0025,153.085 126.9175,153.085 C127.6675,153.085 128.4925,153.37 129.2125,153.835 L129.7375,152.965 C128.9425,152.44 127.8925,152.11 126.9475,152.11 C125.4175,152.11 124.3075,152.995 124.3075,154.33 L124.3075,154.36 C124.3075,155.785 125.6575,156.205 126.8725,156.55 C127.8925,156.835 128.8075,157.135 128.8075,157.915 L128.8075,157.945 C128.8075,158.695 128.1325,159.175 127.2025,159.175 C126.2875,159.175 125.3575,158.815 124.5175,158.185 L123.9325,159.01 C124.8025,159.715 126.0325,160.15 127.1425,160.15 Z" id="Monitoryouraccounts" fill="#3A3A3A" fill-rule="nonzero"></path>
        <path d="M210.415,142 L210.415,137.92 L213.415,137.92 L216.46,142 L217.915,142 L214.69,137.71 C216.34,137.41 217.54,136.39 217.54,134.65 L217.54,134.62 C217.54,133.795 217.24,133.06 216.73,132.55 C216.07,131.89 215.035,131.5 213.745,131.5 L209.23,131.5 L209.23,142 L210.415,142 Z M213.64,136.855 L210.415,136.855 L210.415,132.595 L213.655,132.595 C215.35,132.595 216.34,133.375 216.34,134.665 L216.34,134.695 C216.34,136.045 215.215,136.855 213.64,136.855 Z M223.27,142.18 C224.74,142.18 225.685,141.595 226.465,140.725 L225.745,140.08 C225.115,140.74 224.365,141.175 223.3,141.175 C221.92,141.175 220.735,140.23 220.57,138.55 L226.72,138.55 C226.735,138.415 226.735,138.325 226.735,138.175 C226.735,135.91 225.415,134.08 223.12,134.08 C220.975,134.08 219.4,135.88 219.4,138.115 L219.4,138.145 C219.4,140.545 221.14,142.18 223.27,142.18 Z M225.565,137.695 L220.57,137.695 C220.72,136.18 221.74,135.055 223.09,135.055 C224.635,135.055 225.445,136.285 225.565,137.695 Z M232.195,144.43 C233.425,144.43 234.46,144.085 235.15,143.395 C235.78,142.765 236.14,141.85 236.14,140.65 L236.14,134.245 L234.985,134.245 L234.985,135.64 C234.355,134.8 233.41,134.08 231.955,134.08 C230.11,134.08 228.31,135.475 228.31,137.74 L228.31,137.77 C228.31,140.005 230.095,141.4 231.955,141.4 C233.38,141.4 234.325,140.665 235,139.765 L235,140.68 C235,142.495 233.89,143.44 232.18,143.44 C231.07,143.44 230.08,143.095 229.195,142.45 L228.67,143.35 C229.705,144.07 230.905,144.43 232.195,144.43 Z M232.18,140.38 C230.74,140.38 229.495,139.3 229.495,137.74 L229.495,137.71 C229.495,136.12 230.71,135.1 232.18,135.1 C233.65,135.1 235.03,136.135 235.03,137.725 L235.03,137.755 C235.03,139.315 233.65,140.38 232.18,140.38 Z M241.57,142.165 C242.905,142.165 243.7,141.49 244.225,140.65 L244.225,142 L245.365,142 L245.365,134.245 L244.225,134.245 L244.225,138.685 C244.225,140.14 243.22,141.115 241.9,141.115 C240.535,141.115 239.755,140.215 239.755,138.775 L239.755,134.245 L238.6,134.245 L238.6,139.06 C238.6,140.905 239.695,142.165 241.57,142.165 Z M249.22,142 L249.22,131.05 L248.065,131.05 L248.065,142 L249.22,142 Z M254.215,142.165 C255.58,142.165 256.48,141.535 257.02,140.83 L257.02,142 L258.13,142 L258.13,137.26 C258.13,136.27 257.86,135.52 257.335,134.995 C256.765,134.425 255.925,134.14 254.83,134.14 C253.705,134.14 252.865,134.395 252.01,134.785 L252.355,135.73 C253.075,135.4 253.795,135.16 254.71,135.16 C256.165,135.16 257.02,135.88 257.02,137.275 L257.02,137.545 C256.33,137.35 255.625,137.215 254.635,137.215 C252.67,137.215 251.32,138.085 251.32,139.72 L251.32,139.75 C251.32,141.34 252.775,142.165 254.215,142.165 Z M254.44,141.25 C253.39,141.25 252.49,140.68 252.49,139.705 L252.49,139.675 C252.49,138.7 253.3,138.07 254.755,138.07 C255.7,138.07 256.465,138.235 257.035,138.4 L257.035,139.15 C257.035,140.38 255.865,141.25 254.44,141.25 Z M261.745,142 L261.745,138.91 C261.745,136.57 263.125,135.355 264.82,135.355 L264.91,135.355 L264.91,134.11 C263.44,134.05 262.315,134.98 261.745,136.27 L261.745,134.245 L260.59,134.245 L260.59,142 L261.745,142 Z M267.925,142 L267.925,131.05 L266.77,131.05 L266.77,142 L267.925,142 Z M271.81,144.445 C272.98,144.445 273.73,143.86 274.39,142.255 L277.645,134.245 L276.415,134.245 L273.925,140.71 L271.105,134.245 L269.83,134.245 L273.355,141.97 C272.89,143.065 272.455,143.425 271.765,143.425 C271.27,143.425 270.925,143.335 270.55,143.14 L270.16,144.055 C270.685,144.31 271.165,144.445 271.81,144.445 Z M287.47,142.18 C288.925,142.18 289.855,141.55 290.635,140.68 L289.9,139.99 C289.285,140.65 288.52,141.145 287.53,141.145 C285.91,141.145 284.68,139.81 284.68,138.13 L284.68,138.1 C284.68,136.435 285.88,135.1 287.455,135.1 C288.505,135.1 289.195,135.625 289.81,136.27 L290.575,135.46 C289.855,134.695 288.94,134.08 287.47,134.08 C285.205,134.08 283.495,135.94 283.495,138.13 L283.495,138.16 C283.495,140.335 285.205,142.18 287.47,142.18 Z M293.695,142 L293.695,137.56 C293.695,136.105 294.685,135.13 296.02,135.13 C297.385,135.13 298.165,136.03 298.165,137.47 L298.165,142 L299.32,142 L299.32,137.185 C299.32,135.34 298.225,134.08 296.35,134.08 C295.015,134.08 294.205,134.755 293.695,135.595 L293.695,131.05 L292.54,131.05 L292.54,142 L293.695,142 Z M304.09,142.165 C305.455,142.165 306.355,141.535 306.895,140.83 L306.895,142 L308.005,142 L308.005,137.26 C308.005,136.27 307.735,135.52 307.21,134.995 C306.64,134.425 305.8,134.14 304.705,134.14 C303.58,134.14 302.74,134.395 301.885,134.785 L302.23,135.73 C302.95,135.4 303.67,135.16 304.585,135.16 C306.04,135.16 306.895,135.88 306.895,137.275 L306.895,137.545 C306.205,137.35 305.5,137.215 304.51,137.215 C302.545,137.215 301.195,138.085 301.195,139.72 L301.195,139.75 C301.195,141.34 302.65,142.165 304.09,142.165 Z M304.315,141.25 C303.265,141.25 302.365,140.68 302.365,139.705 L302.365,139.675 C302.365,138.7 303.175,138.07 304.63,138.07 C305.575,138.07 306.34,138.235 306.91,138.4 L306.91,139.15 C306.91,140.38 305.74,141.25 304.315,141.25 Z M311.62,142 L311.62,137.56 C311.62,136.105 312.61,135.13 313.945,135.13 C315.31,135.13 316.09,136.03 316.09,137.47 L316.09,142 L317.245,142 L317.245,137.185 C317.245,135.34 316.15,134.08 314.275,134.08 C312.94,134.08 312.13,134.755 311.62,135.595 L311.62,134.245 L310.465,134.245 L310.465,142 L311.62,142 Z M323.14,144.43 C324.37,144.43 325.405,144.085 326.095,143.395 C326.725,142.765 327.085,141.85 327.085,140.65 L327.085,134.245 L325.93,134.245 L325.93,135.64 C325.3,134.8 324.355,134.08 322.9,134.08 C321.055,134.08 319.255,135.475 319.255,137.74 L319.255,137.77 C319.255,140.005 321.04,141.4 322.9,141.4 C324.325,141.4 325.27,140.665 325.945,139.765 L325.945,140.68 C325.945,142.495 324.835,143.44 323.125,143.44 C322.015,143.44 321.025,143.095 320.14,142.45 L319.615,143.35 C320.65,144.07 321.85,144.43 323.14,144.43 Z M323.125,140.38 C321.685,140.38 320.44,139.3 320.44,137.74 L320.44,137.71 C320.44,136.12 321.655,135.1 323.125,135.1 C324.595,135.1 325.975,136.135 325.975,137.725 L325.975,137.755 C325.975,139.315 324.595,140.38 323.125,140.38 Z M333.055,142.18 C334.525,142.18 335.47,141.595 336.25,140.725 L335.53,140.08 C334.9,140.74 334.15,141.175 333.085,141.175 C331.705,141.175 330.52,140.23 330.355,138.55 L336.505,138.55 C336.52,138.415 336.52,138.325 336.52,138.175 C336.52,135.91 335.2,134.08 332.905,134.08 C330.76,134.08 329.185,135.88 329.185,138.115 L329.185,138.145 C329.185,140.545 330.925,142.18 333.055,142.18 Z M335.35,137.695 L330.355,137.695 C330.505,136.18 331.525,135.055 332.875,135.055 C334.42,135.055 335.23,136.285 335.35,137.695 Z M215.9575,162.445 C217.1275,162.445 217.8775,161.86 218.5375,160.255 L221.7925,152.245 L220.5625,152.245 L218.0725,158.71 L215.2525,152.245 L213.9775,152.245 L217.5025,159.97 C217.0375,161.065 216.6025,161.425 215.9125,161.425 C215.4175,161.425 215.0725,161.335 214.6975,161.14 L214.3075,162.055 C214.8325,162.31 215.3125,162.445 215.9575,162.445 Z M227.1625,160.18 C229.5025,160.18 231.2275,158.32 231.2275,156.13 L231.2275,156.1 C231.2275,153.91 229.5175,152.08 227.1925,152.08 C224.8525,152.08 223.1425,153.94 223.1425,156.13 L223.1425,156.16 C223.1425,158.35 224.8375,160.18 227.1625,160.18 Z M227.1925,159.145 C225.5575,159.145 224.3275,157.795 224.3275,156.13 L224.3275,156.1 C224.3275,154.465 225.4825,153.1 227.1625,153.1 C228.7975,153.1 230.0425,154.465 230.0425,156.13 L230.0425,156.16 C230.0425,157.795 228.8725,159.145 227.1925,159.145 Z M236.1625,160.165 C237.4975,160.165 238.2925,159.49 238.8175,158.65 L238.8175,160 L239.9575,160 L239.9575,152.245 L238.8175,152.245 L238.8175,156.685 C238.8175,158.14 237.8125,159.115 236.4925,159.115 C235.1275,159.115 234.3475,158.215 234.3475,156.775 L234.3475,152.245 L233.1925,152.245 L233.1925,157.06 C233.1925,158.905 234.2875,160.165 236.1625,160.165 Z M243.7075,160 L243.7075,156.91 C243.7075,154.57 245.0875,153.355 246.7825,153.355 L246.8725,153.355 L246.8725,152.11 C245.4025,152.05 244.2775,152.98 243.7075,154.27 L243.7075,152.245 L242.5525,152.245 L242.5525,160 L243.7075,160 Z M254.2825,162.4 L254.2825,158.515 C254.8825,159.385 255.8125,160.165 257.2525,160.165 C259.1275,160.165 260.9575,158.665 260.9575,156.13 L260.9575,156.1 C260.9575,153.55 259.1125,152.08 257.2525,152.08 C255.8275,152.08 254.9125,152.875 254.2825,153.805 L254.2825,152.245 L253.1275,152.245 L253.1275,162.4 L254.2825,162.4 Z M257.0425,159.13 C255.6025,159.13 254.2375,157.93 254.2375,156.13 L254.2375,156.1 C254.2375,154.33 255.6025,153.115 257.0425,153.115 C258.5125,153.115 259.7725,154.285 259.7725,156.115 L259.7725,156.145 C259.7725,158.02 258.5425,159.13 257.0425,159.13 Z M265.3975,160.165 C266.7625,160.165 267.6625,159.535 268.2025,158.83 L268.2025,160 L269.3125,160 L269.3125,155.26 C269.3125,154.27 269.0425,153.52 268.5175,152.995 C267.9475,152.425 267.1075,152.14 266.0125,152.14 C264.8875,152.14 264.0475,152.395 263.1925,152.785 L263.5375,153.73 C264.2575,153.4 264.9775,153.16 265.8925,153.16 C267.3475,153.16 268.2025,153.88 268.2025,155.275 L268.2025,155.545 C267.5125,155.35 266.8075,155.215 265.8175,155.215 C263.8525,155.215 262.5025,156.085 262.5025,157.72 L262.5025,157.75 C262.5025,159.34 263.9575,160.165 265.3975,160.165 Z M265.6225,159.25 C264.5725,159.25 263.6725,158.68 263.6725,157.705 L263.6725,157.675 C263.6725,156.7 264.4825,156.07 265.9375,156.07 C266.8825,156.07 267.6475,156.235 268.2175,156.4 L268.2175,157.15 C268.2175,158.38 267.0475,159.25 265.6225,159.25 Z M274.3375,160.15 C275.8825,160.15 277.0975,159.295 277.0975,157.825 L277.0975,157.795 C277.0975,156.4 275.8075,155.935 274.6075,155.575 C273.5725,155.26 272.6125,154.975 272.6125,154.24 L272.6125,154.21 C272.6125,153.565 273.1975,153.085 274.1125,153.085 C274.8625,153.085 275.6875,153.37 276.4075,153.835 L276.9325,152.965 C276.1375,152.44 275.0875,152.11 274.1425,152.11 C272.6125,152.11 271.5025,152.995 271.5025,154.33 L271.5025,154.36 C271.5025,155.785 272.8525,156.205 274.0675,156.55 C275.0875,156.835 276.0025,157.135 276.0025,157.915 L276.0025,157.945 C276.0025,158.695 275.3275,159.175 274.3975,159.175 C273.4825,159.175 272.5525,158.815 271.7125,158.185 L271.1275,159.01 C271.9975,159.715 273.2275,160.15 274.3375,160.15 Z M281.8075,160.15 C283.3525,160.15 284.5675,159.295 284.5675,157.825 L284.5675,157.795 C284.5675,156.4 283.2775,155.935 282.0775,155.575 C281.0425,155.26 280.0825,154.975 280.0825,154.24 L280.0825,154.21 C280.0825,153.565 280.6675,153.085 281.5825,153.085 C282.3325,153.085 283.1575,153.37 283.8775,153.835 L284.4025,152.965 C283.6075,152.44 282.5575,152.11 281.6125,152.11 C280.0825,152.11 278.9725,152.995 278.9725,154.33 L278.9725,154.36 C278.9725,155.785 280.3225,156.205 281.5375,156.55 C282.5575,156.835 283.4725,157.135 283.4725,157.915 L283.4725,157.945 C283.4725,158.695 282.7975,159.175 281.8675,159.175 C280.9525,159.175 280.0225,158.815 279.1825,158.185 L278.5975,159.01 C279.4675,159.715 280.6975,160.15 281.8075,160.15 Z M289.7875,160.06 L291.8875,153.94 L293.9725,160.06 L294.9775,160.06 L297.7075,152.245 L296.5075,152.245 L294.4675,158.47 L292.3675,152.215 L291.4075,152.215 L289.3225,158.47 L287.2825,152.245 L286.0525,152.245 L288.7675,160.06 L289.7875,160.06 Z M303.1675,160.18 C305.5075,160.18 307.2325,158.32 307.2325,156.13 L307.2325,156.1 C307.2325,153.91 305.5225,152.08 303.1975,152.08 C300.8575,152.08 299.1475,153.94 299.1475,156.13 L299.1475,156.16 C299.1475,158.35 300.8425,160.18 303.1675,160.18 Z M303.1975,159.145 C301.5625,159.145 300.3325,157.795 300.3325,156.13 L300.3325,156.1 C300.3325,154.465 301.4875,153.1 303.1675,153.1 C304.8025,153.1 306.0475,154.465 306.0475,156.13 L306.0475,156.16 C306.0475,157.795 304.8775,159.145 303.1975,159.145 Z M310.4725,160 L310.4725,156.91 C310.4725,154.57 311.8525,153.355 313.5475,153.355 L313.6375,153.355 L313.6375,152.11 C312.1675,152.05 311.0425,152.98 310.4725,154.27 L310.4725,152.245 L309.3175,152.245 L309.3175,160 L310.4725,160 Z M318.6475,160.165 C320.0725,160.165 320.9875,159.37 321.6175,158.44 L321.6175,160 L322.7725,160 L322.7725,149.05 L321.6175,149.05 L321.6175,153.73 C321.0175,152.86 320.0875,152.08 318.6475,152.08 C316.7875,152.08 314.9425,153.58 314.9425,156.115 L314.9425,156.145 C314.9425,158.695 316.7875,160.165 318.6475,160.165 Z M318.8575,159.13 C317.4025,159.13 316.1275,157.96 316.1275,156.13 L316.1275,156.1 C316.1275,154.225 317.3575,153.115 318.8575,153.115 C320.2975,153.115 321.6625,154.315 321.6625,156.1 L321.6625,156.13 C321.6625,157.915 320.2975,159.13 318.8575,159.13 Z M327.9175,160.15 C329.4625,160.15 330.6775,159.295 330.6775,157.825 L330.6775,157.795 C330.6775,156.4 329.3875,155.935 328.1875,155.575 C327.1525,155.26 326.1925,154.975 326.1925,154.24 L326.1925,154.21 C326.1925,153.565 326.7775,153.085 327.6925,153.085 C328.4425,153.085 329.2675,153.37 329.9875,153.835 L330.5125,152.965 C329.7175,152.44 328.6675,152.11 327.7225,152.11 C326.1925,152.11 325.0825,152.995 325.0825,154.33 L325.0825,154.36 C325.0825,155.785 326.4325,156.205 327.6475,156.55 C328.6675,156.835 329.5825,157.135 329.5825,157.915 L329.5825,157.945 C329.5825,158.695 328.9075,159.175 327.9775,159.175 C327.0625,159.175 326.1325,158.815 325.2925,158.185 L324.7075,159.01 C325.5775,159.715 326.8075,160.15 327.9175,160.15 Z" id="Regularlychangeyourpasswords" fill="#3A3A3A" fill-rule="nonzero"></path>
        <path d="M399.3625,142.165 C401.9875,142.165 403.7425,140.575 403.7425,137.515 L403.7425,131.5 L402.5575,131.5 L402.5575,137.605 C402.5575,139.9 401.3275,141.07 399.3925,141.07 C397.3975,141.07 396.1825,139.795 396.1825,137.53 L396.1825,131.5 L394.9975,131.5 L394.9975,137.605 C394.9975,140.575 396.7675,142.165 399.3625,142.165 Z M408.9175,142.15 C410.4625,142.15 411.6775,141.295 411.6775,139.825 L411.6775,139.795 C411.6775,138.4 410.3875,137.935 409.1875,137.575 C408.1525,137.26 407.1925,136.975 407.1925,136.24 L407.1925,136.21 C407.1925,135.565 407.7775,135.085 408.6925,135.085 C409.4425,135.085 410.2675,135.37 410.9875,135.835 L411.5125,134.965 C410.7175,134.44 409.6675,134.11 408.7225,134.11 C407.1925,134.11 406.0825,134.995 406.0825,136.33 L406.0825,136.36 C406.0825,137.785 407.4325,138.205 408.6475,138.55 C409.6675,138.835 410.5825,139.135 410.5825,139.915 L410.5825,139.945 C410.5825,140.695 409.9075,141.175 408.9775,141.175 C408.0625,141.175 407.1325,140.815 406.2925,140.185 L405.7075,141.01 C406.5775,141.715 407.8075,142.15 408.9175,142.15 Z M417.2125,142.18 C418.6825,142.18 419.6275,141.595 420.4075,140.725 L419.6875,140.08 C419.0575,140.74 418.3075,141.175 417.2425,141.175 C415.8625,141.175 414.6775,140.23 414.5125,138.55 L420.6625,138.55 C420.6775,138.415 420.6775,138.325 420.6775,138.175 C420.6775,135.91 419.3575,134.08 417.0625,134.08 C414.9175,134.08 413.3425,135.88 413.3425,138.115 L413.3425,138.145 C413.3425,140.545 415.0825,142.18 417.2125,142.18 Z M419.5075,137.695 L414.5125,137.695 C414.6625,136.18 415.6825,135.055 417.0325,135.055 C418.5775,135.055 419.3875,136.285 419.5075,137.695 Z M429.5125,142.165 C430.8775,142.165 431.7775,141.535 432.3175,140.83 L432.3175,142 L433.4275,142 L433.4275,137.26 C433.4275,136.27 433.1575,135.52 432.6325,134.995 C432.0625,134.425 431.2225,134.14 430.1275,134.14 C429.0025,134.14 428.1625,134.395 427.3075,134.785 L427.6525,135.73 C428.3725,135.4 429.0925,135.16 430.0075,135.16 C431.4625,135.16 432.3175,135.88 432.3175,137.275 L432.3175,137.545 C431.6275,137.35 430.9225,137.215 429.9325,137.215 C427.9675,137.215 426.6175,138.085 426.6175,139.72 L426.6175,139.75 C426.6175,141.34 428.0725,142.165 429.5125,142.165 Z M429.7375,141.25 C428.6875,141.25 427.7875,140.68 427.7875,139.705 L427.7875,139.675 C427.7875,138.7 428.5975,138.07 430.0525,138.07 C430.9975,138.07 431.7625,138.235 432.3325,138.4 L432.3325,139.15 C432.3325,140.38 431.1625,141.25 429.7375,141.25 Z M441.5425,144.4 L441.5425,140.515 C442.1425,141.385 443.0725,142.165 444.5125,142.165 C446.3875,142.165 448.2175,140.665 448.2175,138.13 L448.2175,138.1 C448.2175,135.55 446.3725,134.08 444.5125,134.08 C443.0875,134.08 442.1725,134.875 441.5425,135.805 L441.5425,134.245 L440.3875,134.245 L440.3875,144.4 L441.5425,144.4 Z M444.3025,141.13 C442.8625,141.13 441.4975,139.93 441.4975,138.13 L441.4975,138.1 C441.4975,136.33 442.8625,135.115 444.3025,135.115 C445.7725,135.115 447.0325,136.285 447.0325,138.115 L447.0325,138.145 C447.0325,140.02 445.8025,141.13 444.3025,141.13 Z M452.6575,142.165 C454.0225,142.165 454.9225,141.535 455.4625,140.83 L455.4625,142 L456.5725,142 L456.5725,137.26 C456.5725,136.27 456.3025,135.52 455.7775,134.995 C455.2075,134.425 454.3675,134.14 453.2725,134.14 C452.1475,134.14 451.3075,134.395 450.4525,134.785 L450.7975,135.73 C451.5175,135.4 452.2375,135.16 453.1525,135.16 C454.6075,135.16 455.4625,135.88 455.4625,137.275 L455.4625,137.545 C454.7725,137.35 454.0675,137.215 453.0775,137.215 C451.1125,137.215 449.7625,138.085 449.7625,139.72 L449.7625,139.75 C449.7625,141.34 451.2175,142.165 452.6575,142.165 Z M452.8825,141.25 C451.8325,141.25 450.9325,140.68 450.9325,139.705 L450.9325,139.675 C450.9325,138.7 451.7425,138.07 453.1975,138.07 C454.1425,138.07 454.9075,138.235 455.4775,138.4 L455.4775,139.15 C455.4775,140.38 454.3075,141.25 452.8825,141.25 Z M461.5975,142.15 C463.1425,142.15 464.3575,141.295 464.3575,139.825 L464.3575,139.795 C464.3575,138.4 463.0675,137.935 461.8675,137.575 C460.8325,137.26 459.8725,136.975 459.8725,136.24 L459.8725,136.21 C459.8725,135.565 460.4575,135.085 461.3725,135.085 C462.1225,135.085 462.9475,135.37 463.6675,135.835 L464.1925,134.965 C463.3975,134.44 462.3475,134.11 461.4025,134.11 C459.8725,134.11 458.7625,134.995 458.7625,136.33 L458.7625,136.36 C458.7625,137.785 460.1125,138.205 461.3275,138.55 C462.3475,138.835 463.2625,139.135 463.2625,139.915 L463.2625,139.945 C463.2625,140.695 462.5875,141.175 461.6575,141.175 C460.7425,141.175 459.8125,140.815 458.9725,140.185 L458.3875,141.01 C459.2575,141.715 460.4875,142.15 461.5975,142.15 Z M469.0675,142.15 C470.6125,142.15 471.8275,141.295 471.8275,139.825 L471.8275,139.795 C471.8275,138.4 470.5375,137.935 469.3375,137.575 C468.3025,137.26 467.3425,136.975 467.3425,136.24 L467.3425,136.21 C467.3425,135.565 467.9275,135.085 468.8425,135.085 C469.5925,135.085 470.4175,135.37 471.1375,135.835 L471.6625,134.965 C470.8675,134.44 469.8175,134.11 468.8725,134.11 C467.3425,134.11 466.2325,134.995 466.2325,136.33 L466.2325,136.36 C466.2325,137.785 467.5825,138.205 468.7975,138.55 C469.8175,138.835 470.7325,139.135 470.7325,139.915 L470.7325,139.945 C470.7325,140.695 470.0575,141.175 469.1275,141.175 C468.2125,141.175 467.2825,140.815 466.4425,140.185 L465.8575,141.01 C466.7275,141.715 467.9575,142.15 469.0675,142.15 Z M477.0475,142.06 L479.1475,135.94 L481.2325,142.06 L482.2375,142.06 L484.9675,134.245 L483.7675,134.245 L481.7275,140.47 L479.6275,134.215 L478.6675,134.215 L476.5825,140.47 L474.5425,134.245 L473.3125,134.245 L476.0275,142.06 L477.0475,142.06 Z M490.4275,142.18 C492.7675,142.18 494.4925,140.32 494.4925,138.13 L494.4925,138.1 C494.4925,135.91 492.7825,134.08 490.4575,134.08 C488.1175,134.08 486.4075,135.94 486.4075,138.13 L486.4075,138.16 C486.4075,140.35 488.1025,142.18 490.4275,142.18 Z M490.4575,141.145 C488.8225,141.145 487.5925,139.795 487.5925,138.13 L487.5925,138.1 C487.5925,136.465 488.7475,135.1 490.4275,135.1 C492.0625,135.1 493.3075,136.465 493.3075,138.13 L493.3075,138.16 C493.3075,139.795 492.1375,141.145 490.4575,141.145 Z M497.7325,142 L497.7325,138.91 C497.7325,136.57 499.1125,135.355 500.8075,135.355 L500.8975,135.355 L500.8975,134.11 C499.4275,134.05 498.3025,134.98 497.7325,136.27 L497.7325,134.245 L496.5775,134.245 L496.5775,142 L497.7325,142 Z M505.9075,142.165 C507.3325,142.165 508.2475,141.37 508.8775,140.44 L508.8775,142 L510.0325,142 L510.0325,131.05 L508.8775,131.05 L508.8775,135.73 C508.2775,134.86 507.3475,134.08 505.9075,134.08 C504.0475,134.08 502.2025,135.58 502.2025,138.115 L502.2025,138.145 C502.2025,140.695 504.0475,142.165 505.9075,142.165 Z M506.1175,141.13 C504.6625,141.13 503.3875,139.96 503.3875,138.13 L503.3875,138.1 C503.3875,136.225 504.6175,135.115 506.1175,135.115 C507.5575,135.115 508.9225,136.315 508.9225,138.1 L508.9225,138.13 C508.9225,139.915 507.5575,141.13 506.1175,141.13 Z M422.05,160 L422.05,155.575 C422.05,154.15 422.98,153.13 424.21,153.13 C425.44,153.13 426.205,153.985 426.205,155.44 L426.205,160 L427.36,160 L427.36,155.53 C427.36,154 428.32,153.13 429.49,153.13 C430.75,153.13 431.5,153.97 431.5,155.47 L431.5,160 L432.655,160 L432.655,155.2 C432.655,153.28 431.56,152.08 429.775,152.08 C428.425,152.08 427.6,152.77 427.045,153.625 C426.625,152.755 425.815,152.08 424.555,152.08 C423.25,152.08 422.56,152.785 422.05,153.55 L422.05,152.245 L420.895,152.245 L420.895,160 L422.05,160 Z M437.47,160.165 C438.835,160.165 439.735,159.535 440.275,158.83 L440.275,160 L441.385,160 L441.385,155.26 C441.385,154.27 441.115,153.52 440.59,152.995 C440.02,152.425 439.18,152.14 438.085,152.14 C436.96,152.14 436.12,152.395 435.265,152.785 L435.61,153.73 C436.33,153.4 437.05,153.16 437.965,153.16 C439.42,153.16 440.275,153.88 440.275,155.275 L440.275,155.545 C439.585,155.35 438.88,155.215 437.89,155.215 C435.925,155.215 434.575,156.085 434.575,157.72 L434.575,157.75 C434.575,159.34 436.03,160.165 437.47,160.165 Z M437.695,159.25 C436.645,159.25 435.745,158.68 435.745,157.705 L435.745,157.675 C435.745,156.7 436.555,156.07 438.01,156.07 C438.955,156.07 439.72,156.235 440.29,156.4 L440.29,157.15 C440.29,158.38 439.12,159.25 437.695,159.25 Z M445,160 L445,155.56 C445,154.105 445.99,153.13 447.325,153.13 C448.69,153.13 449.47,154.03 449.47,155.47 L449.47,160 L450.625,160 L450.625,155.185 C450.625,153.34 449.53,152.08 447.655,152.08 C446.32,152.08 445.51,152.755 445,153.595 L445,152.245 L443.845,152.245 L443.845,160 L445,160 Z M455.395,160.165 C456.76,160.165 457.66,159.535 458.2,158.83 L458.2,160 L459.31,160 L459.31,155.26 C459.31,154.27 459.04,153.52 458.515,152.995 C457.945,152.425 457.105,152.14 456.01,152.14 C454.885,152.14 454.045,152.395 453.19,152.785 L453.535,153.73 C454.255,153.4 454.975,153.16 455.89,153.16 C457.345,153.16 458.2,153.88 458.2,155.275 L458.2,155.545 C457.51,155.35 456.805,155.215 455.815,155.215 C453.85,155.215 452.5,156.085 452.5,157.72 L452.5,157.75 C452.5,159.34 453.955,160.165 455.395,160.165 Z M455.62,159.25 C454.57,159.25 453.67,158.68 453.67,157.705 L453.67,157.675 C453.67,156.7 454.48,156.07 455.935,156.07 C456.88,156.07 457.645,156.235 458.215,156.4 L458.215,157.15 C458.215,158.38 457.045,159.25 455.62,159.25 Z M465.205,162.43 C466.435,162.43 467.47,162.085 468.16,161.395 C468.79,160.765 469.15,159.85 469.15,158.65 L469.15,152.245 L467.995,152.245 L467.995,153.64 C467.365,152.8 466.42,152.08 464.965,152.08 C463.12,152.08 461.32,153.475 461.32,155.74 L461.32,155.77 C461.32,158.005 463.105,159.4 464.965,159.4 C466.39,159.4 467.335,158.665 468.01,157.765 L468.01,158.68 C468.01,160.495 466.9,161.44 465.19,161.44 C464.08,161.44 463.09,161.095 462.205,160.45 L461.68,161.35 C462.715,162.07 463.915,162.43 465.205,162.43 Z M465.19,158.38 C463.75,158.38 462.505,157.3 462.505,155.74 L462.505,155.71 C462.505,154.12 463.72,153.1 465.19,153.1 C466.66,153.1 468.04,154.135 468.04,155.725 L468.04,155.755 C468.04,157.315 466.66,158.38 465.19,158.38 Z M475.12,160.18 C476.59,160.18 477.535,159.595 478.315,158.725 L477.595,158.08 C476.965,158.74 476.215,159.175 475.15,159.175 C473.77,159.175 472.585,158.23 472.42,156.55 L478.57,156.55 C478.585,156.415 478.585,156.325 478.585,156.175 C478.585,153.91 477.265,152.08 474.97,152.08 C472.825,152.08 471.25,153.88 471.25,156.115 L471.25,156.145 C471.25,158.545 472.99,160.18 475.12,160.18 Z M477.415,155.695 L472.42,155.695 C472.57,154.18 473.59,153.055 474.94,153.055 C476.485,153.055 477.295,154.285 477.415,155.695 Z M481.765,160 L481.765,156.91 C481.765,154.57 483.145,153.355 484.84,153.355 L484.93,153.355 L484.93,152.11 C483.46,152.05 482.335,152.98 481.765,154.27 L481.765,152.245 L480.61,152.245 L480.61,160 L481.765,160 Z" id="Useapasswordmanager" fill="#3A3A3A" fill-rule="nonzero"></path>
        <g id="Group-23" transform="translate(414.000000, 26.000000)">
            <g id="Group-3" transform="translate(0.000000, 37.000000)">
                <mask id="mask-10" fill="white">
                    <use xlink:href="#path-9"></use>
                </mask>
                <g id="Clip-2"></g>
                <path d="M1.0102,0.9946 C1.0102,0.9976 1.0082,1.0006 1.0052,1.0006 C1.0022,1.0006 1.0002,0.9976 1.0002,0.9946 C1.0002,0.9926 1.0022,0.9896 1.0052,0.9896 C1.0082,0.9896 1.0102,0.9926 1.0102,0.9946" id="Fill-1" fill="#494B54" mask="url(#mask-10)"></path>
            </g>
            <g id="Group-6" transform="translate(74.000000, 37.000000)">
                <mask id="mask-12" fill="white">
                    <use xlink:href="#path-11"></use>
                </mask>
                <g id="Clip-5"></g>
                <path d="M1.0097,1.0004 C1.0097,1.0024 1.0077,1.0054 1.0047,1.0054 C1.0027,1.0054 0.9997,1.0024 0.9997,1.0004 C0.9997,0.9974 1.0027,0.9944 1.0047,0.9944 C1.0077,0.9944 1.0097,0.9974 1.0097,1.0004" id="Fill-4" fill="#494B54" mask="url(#mask-12)"></path>
            </g>
            <g id="Group-9" transform="translate(37.000000, 74.000000)">
                <mask id="mask-14" fill="white">
                    <use xlink:href="#path-13"></use>
                </mask>
                <g id="Clip-8"></g>
                <path d="M0.8979,0.9946 C0.8979,0.9976 0.8959,1.0006 0.8929,1.0006 C0.8899,1.0006 0.8879,0.9976 0.8879,0.9946 C0.8879,0.9926 0.8899,0.9896 0.8929,0.9896 C0.8959,0.9896 0.8979,0.9926 0.8979,0.9946" id="Fill-7" fill="#494B54" mask="url(#mask-14)"></path>
            </g>
            <g id="Group-12" transform="translate(37.000000, 0.000000)">
                <mask id="mask-16" fill="white">
                    <use xlink:href="#path-15"></use>
                </mask>
                <g id="Clip-11"></g>
                <path d="M0.8925,0.9955 C0.8925,0.9975 0.8905,1.0005 0.8875,1.0005 C0.8845,1.0005 0.8825,0.9975 0.8825,0.9955 C0.8825,0.9925 0.8845,0.9895 0.8875,0.9895 C0.8905,0.9895 0.8925,0.9925 0.8925,0.9955" id="Fill-10" fill="#494B54" mask="url(#mask-16)"></path>
            </g>
            <path d="M38,72 C19.2229333,72 4,57.1497733 4,38.8318406 C4,33.0991269 5.49146667,27.7046721 8.11626667,23" id="Stroke-13" stroke="#494B54" stroke-width="4"></path>
            <polygon id="Fill-15" fill="#494B54" points="12.7760508 28 14 15 2 20.4503106"></polygon>
            <path d="M38,5 C56.7770667,5 72,19.8502267 72,38.1681594 C72,43.9008731 70.5085333,49.2953279 67.8837333,54" id="Stroke-17" stroke="#494B54" stroke-width="4"></path>
            <polygon id="Fill-19" fill="#494B54" points="63.2228456 49 62 62 74 56.5485983"></polygon>
            <path d="M41.4589244,30.9784644 C42.4149355,30.0312304 43.9646442,30.0312304 44.9195266,30.9784644 C45.8755377,31.9256984 45.8755377,33.4611792 44.9195266,34.4072949 C43.9646442,35.3545289 42.4149355,35.3545289 41.4589244,34.4072949 C40.5029133,33.4611792 40.5029133,31.9256984 41.4589244,30.9784644 L41.4589244,30.9784644 Z M19,49.8884758 L19.0259602,57 L26.1175986,56.9418463 L26.4787834,56.5850959 L26.484427,51.7247901 L31.2294927,51.7247901 L31.2362649,47.0165786 L35.9181233,47.0154603 L38.5005949,44.5059053 C43.100058,46.294131 48.5313749,45.3513703 52.2481926,41.6686767 C57.2506025,36.7110753 57.2506025,28.6735656 52.2481926,23.718201 C47.2446539,18.7605997 39.133797,18.7605997 34.1302584,23.718201 C30.3366889,27.4758235 29.4224398,33.0048965 31.3829962,37.6191674 L19,49.8884758 Z" id="Fill-21" fill="#494B54"></path>
        </g>
    </g>
</svg>